<svg width="20" height="22" viewBox="0 0 20 22" fill="none" xmlns="http://www.w3.org/2000/svg">
<path d="M13.4785 4.22826L10.0002 0.75L6.52197 4.22826" stroke="#6F7882" stroke-width="1.5" stroke-linecap="round" stroke-linejoin="round"/>
<path d="M5.07228 7.92396C5.07228 8.32755 4.91196 8.71461 4.62658 8.99999C4.3412 9.28537 3.95414 9.4457 3.55054 9.4457H2.53663C2.13304 9.4457 1.74598 9.28537 1.4606 8.99999C1.17522 8.71461 1.01489 8.32755 1.01489 7.92396C1.01489 7.52037 1.17522 7.13331 1.4606 6.84793C1.74598 6.56255 2.13304 6.40222 2.53663 6.40222H3.55054C3.95414 6.40222 4.3412 6.56255 4.62658 6.84793C4.91196 7.13331 5.07228 7.52037 5.07228 7.92396Z" stroke="#6F7882" stroke-width="1.5" stroke-linecap="round" stroke-linejoin="round"/>
<path d="M12.0288 7.92396C12.0288 8.32755 11.8685 8.71461 11.5831 8.99999C11.2977 9.28537 10.9107 9.4457 10.5071 9.4457H9.49317C9.08958 9.4457 8.70252 9.28537 8.41714 8.99999C8.13176 8.71461 7.97144 8.32755 7.97144 7.92396C7.97144 7.52037 8.13176 7.13331 8.41714 6.84793C8.70252 6.56255 9.08958 6.40222 9.49317 6.40222H10.5071C10.9107 6.40222 11.2977 6.56255 11.5831 6.84793C11.8685 7.13331 12.0288 7.52037 12.0288 7.92396Z" stroke="#6F7882" stroke-width="1.5" stroke-linecap="round" stroke-linejoin="round"/>
<path d="M18.9854 7.92396C18.9854 8.32755 18.825 8.71461 18.5397 8.99999C18.2543 9.28537 17.8672 9.4457 17.4636 9.4457H16.4497C16.0461 9.4457 15.6591 9.28537 15.3737 8.99999C15.0883 8.71461 14.928 8.32755 14.928 7.92396C14.928 7.52037 15.0883 7.13331 15.3737 6.84793C15.6591 6.56255 16.0461 6.40222 16.4497 6.40222H17.4636C17.8672 6.40222 18.2543 6.56255 18.5397 6.84793C18.825 7.13331 18.9854 7.52037 18.9854 7.92396Z" stroke="#6F7882" stroke-width="1.5" stroke-linecap="round" stroke-linejoin="round"/>
<path d="M5.07228 13.5761C5.07228 13.9797 4.91196 14.3667 4.62658 14.6521C4.3412 14.9375 3.95414 15.0978 3.55054 15.0978H2.53663C2.13304 15.0978 1.74598 14.9375 1.4606 14.6521C1.17522 14.3667 1.01489 13.9797 1.01489 13.5761C1.01489 13.1725 1.17522 12.7854 1.4606 12.5C1.74598 12.2146 2.13304 12.0543 2.53663 12.0543H3.55054C3.95414 12.0543 4.3412 12.2146 4.62658 12.5C4.91196 12.7854 5.07228 13.1725 5.07228 13.5761Z" stroke="#6F7882" stroke-width="1.5" stroke-linecap="round" stroke-linejoin="round"/>
<path d="M12.0288 13.5761C12.0288 13.9797 11.8685 14.3667 11.5831 14.6521C11.2977 14.9375 10.9107 15.0978 10.5071 15.0978H9.49317C9.08958 15.0978 8.70252 14.9375 8.41714 14.6521C8.13176 14.3667 7.97144 13.9797 7.97144 13.5761C7.97144 13.1725 8.13176 12.7854 8.41714 12.5C8.70252 12.2146 9.08958 12.0543 9.49317 12.0543H10.5071C10.9107 12.0543 11.2977 12.2146 11.5831 12.5C11.8685 12.7854 12.0288 13.1725 12.0288 13.5761Z" stroke="#6F7882" stroke-width="1.5" stroke-linecap="round" stroke-linejoin="round"/>
<path d="M18.9854 13.5761C18.9854 13.9797 18.825 14.3667 18.5397 14.6521C18.2543 14.9375 17.8672 15.0978 17.4636 15.0978H16.4497C16.0461 15.0978 15.6591 14.9375 15.3737 14.6521C15.0883 14.3667 14.928 13.9797 14.928 13.5761C14.928 13.1725 15.0883 12.7854 15.3737 12.5C15.6591 12.2146 16.0461 12.0543 16.4497 12.0543H17.4636C17.8672 12.0543 18.2543 12.2146 18.5397 12.5C18.825 12.7854 18.9854 13.1725 18.9854 13.5761Z" stroke="#6F7882" stroke-width="1.5" stroke-linecap="round" stroke-linejoin="round"/>
<path d="M5.07228 19.2283C5.07228 19.6319 4.91196 20.0189 4.62658 20.3043C4.3412 20.5897 3.95414 20.75 3.55054 20.75H2.53663C2.13304 20.75 1.74598 20.5897 1.4606 20.3043C1.17522 20.0189 1.01489 19.6319 1.01489 19.2283C1.01489 18.8247 1.17522 18.4376 1.4606 18.1523C1.74598 17.8669 2.13304 17.7065 2.53663 17.7065H3.55054C3.95414 17.7065 4.3412 17.8669 4.62658 18.1523C4.91196 18.4376 5.07228 18.8247 5.07228 19.2283Z" stroke="#6F7882" stroke-width="1.5" stroke-linecap="round" stroke-linejoin="round"/>
<path d="M12.0288 19.2283C12.0288 19.6319 11.8685 20.0189 11.5831 20.3043C11.2977 20.5897 10.9107 20.75 10.5071 20.75H9.49317C9.08958 20.75 8.70252 20.5897 8.41714 20.3043C8.13176 20.0189 7.97144 19.6319 7.97144 19.2283C7.97144 18.8247 8.13176 18.4376 8.41714 18.1523C8.70252 17.8669 9.08958 17.7065 9.49317 17.7065H10.5071C10.9107 17.7065 11.2977 17.8669 11.5831 18.1523C11.8685 18.4376 12.0288 18.8247 12.0288 19.2283Z" stroke="#6F7882" stroke-width="1.5" stroke-linecap="round" stroke-linejoin="round"/>
<path d="M18.9854 19.2283C18.9854 19.6319 18.825 20.0189 18.5397 20.3043C18.2543 20.5897 17.8672 20.75 17.4636 20.75H16.4497C16.0461 20.75 15.6591 20.5897 15.3737 20.3043C15.0883 20.0189 14.928 19.6319 14.928 19.2283C14.928 18.8247 15.0883 18.4376 15.3737 18.1523C15.6591 17.8669 16.0461 17.7065 16.4497 17.7065H17.4636C17.8672 17.7065 18.2543 17.8669 18.5397 18.1523C18.825 18.4376 18.9854 18.8247 18.9854 19.2283Z" stroke="#6F7882" stroke-width="1.5" stroke-linecap="round" stroke-linejoin="round"/>
</svg>
